<svg width="32" height="32" viewBox="0 0 32 32" fill="none" xmlns="http://www.w3.org/2000/svg">
<path d="M6.66732 1.3335H2.66732C2.3137 1.3335 1.97456 1.47397 1.72451 1.72402C1.47446 1.97407 1.33398 2.31321 1.33398 2.66683V29.3335C1.33398 29.6871 1.47446 30.0263 1.72451 30.2763C1.97456 30.5264 2.3137 30.6668 2.66732 30.6668H6.66732V1.3335Z" fill="#D6B1FF"/>
<path d="M9.33398 30.6668H22.6673V1.3335H9.33398V30.6668ZM16.0007 25.3335C15.647 25.3335 15.3079 25.193 15.0578 24.943C14.8078 24.6929 14.6673 24.3538 14.6673 24.0002C14.6673 23.6465 14.8078 23.3074 15.0578 23.0574C15.3079 22.8073 15.647 22.6668 16.0007 22.6668C16.3543 22.6668 16.6934 22.8073 16.9435 23.0574C17.1935 23.3074 17.334 23.6465 17.334 24.0002C17.334 24.3538 17.1935 24.6929 16.9435 24.943C16.6934 25.193 16.3543 25.3335 16.0007 25.3335ZM16.0007 6.66683C16.3543 6.66683 16.6934 6.8073 16.9435 7.05735C17.1935 7.3074 17.334 7.64654 17.334 8.00016C17.334 8.35378 17.1935 8.69292 16.9435 8.94297C16.6934 9.19302 16.3543 9.3335 16.0007 9.3335C15.647 9.3335 15.3079 9.19302 15.0578 8.94297C14.8078 8.69292 14.6673 8.35378 14.6673 8.00016C14.6673 7.64654 14.8078 7.3074 15.0578 7.05735C15.3079 6.8073 15.647 6.66683 16.0007 6.66683ZM16.0007 14.6668C16.3543 14.6668 16.6934 14.8073 16.9435 15.0574C17.1935 15.3074 17.334 15.6465 17.334 16.0002C17.334 16.3538 17.1935 16.6929 16.9435 16.943C16.6934 17.193 16.3543 17.3335 16.0007 17.3335C15.647 17.3335 15.3079 17.193 15.0578 16.943C14.8078 16.6929 14.6673 16.3538 14.6673 16.0002C14.6673 15.6465 14.8078 15.3074 15.0578 15.0574C15.3079 14.8073 15.647 14.6668 16.0007 14.6668Z" fill="#8C30F5"/>
<path d="M29.334 1.3335H25.334V30.6668H29.334C29.6876 30.6668 30.0267 30.5264 30.2768 30.2763C30.5268 30.0263 30.6673 29.6871 30.6673 29.3335V2.66683C30.6673 2.31321 30.5268 1.97407 30.2768 1.72402C30.0267 1.47397 29.6876 1.3335 29.334 1.3335Z" fill="#2EC5CE"/>
</svg>
