<svg width="32" height="32" viewBox="0 0 32 32" fill="none" xmlns="http://www.w3.org/2000/svg">
<path d="M31.466 1.60016C31.1993 1.3335 30.666 1.3335 30.266 1.3335L22.666 3.60016V30.4002L31.066 28.0002C31.5993 27.8668 31.9993 27.3335 31.9993 26.6668V2.66683C31.9993 2.26683 31.866 1.86683 31.466 1.60016Z" fill="#D6B1FF"/>
<path d="M20 3.6001L12 1.6001V28.4001L20 30.4001V3.6001Z" fill="#2EC5CE"/>
<path d="M9.33333 1.6001L0.933334 4.0001C0.400001 4.26676 0 4.8001 0 5.33343V29.3334C0 29.7334 0.133333 30.1334 0.533333 30.4001C0.799999 30.5334 1.06667 30.6668 1.33333 30.6668H1.73333L9.33333 28.4001V1.6001Z" fill="#8C30F5"/>
</svg>
