<svg width="32" height="32" viewBox="0 0 32 32" fill="none" xmlns="http://www.w3.org/2000/svg">
<path d="M12.0007 13.3335H2.66732C2.3137 13.3335 1.97456 13.193 1.72451 12.943C1.47446 12.6929 1.33398 12.3538 1.33398 12.0002V2.66683C1.33398 2.31321 1.47446 1.97407 1.72451 1.72402C1.97456 1.47397 2.3137 1.3335 2.66732 1.3335H12.0007C12.3543 1.3335 12.6934 1.47397 12.9435 1.72402C13.1935 1.97407 13.334 2.31321 13.334 2.66683V12.0002C13.334 12.3538 13.1935 12.6929 12.9435 12.943C12.6934 13.193 12.3543 13.3335 12.0007 13.3335Z" fill="#8C30F5"/>
<path d="M12.0007 30.667H2.66732C2.3137 30.667 1.97456 30.5265 1.72451 30.2765C1.47446 30.0264 1.33398 29.6873 1.33398 29.3337V20.0003C1.33398 19.6467 1.47446 19.3076 1.72451 19.0575C1.97456 18.8075 2.3137 18.667 2.66732 18.667H12.0007C12.3543 18.667 12.6934 18.8075 12.9435 19.0575C13.1935 19.3076 13.334 19.6467 13.334 20.0003V29.3337C13.334 29.6873 13.1935 30.0264 12.9435 30.2765C12.6934 30.5265 12.3543 30.667 12.0007 30.667Z" fill="#8C30F5"/>
<path d="M17.334 2.66699H30.6673V5.33366H17.334V2.66699Z" fill="#2EC5CE"/>
<path d="M30.6673 20H17.334V22.6667H30.6673V20Z" fill="#2EC5CE"/>
<path d="M30.6673 26.667H17.334V29.3337H30.6673V26.667Z" fill="#D6B1FF"/>
<path d="M30.6673 9.3335H17.334V12.0002H30.6673V9.3335Z" fill="#D6B1FF"/>
</svg>
