<svg width="123" height="37" viewBox="0 0 123 37" fill="none" xmlns="http://www.w3.org/2000/svg">
<path fill-rule="evenodd" clip-rule="evenodd" d="M77.1997 11.3096L75.1997 7.92965L71.6497 9.61965L69.6497 6.22965L66.0997 7.92965L64.1097 4.52965L60.5597 6.22965L58.5597 2.83965L55.0097 4.53965L53.0197 1.13965L49.4597 2.83965L41.9297 27.3596L51.0797 30.1596C51.4244 29.0545 52.153 28.109 53.1339 27.4942C54.1148 26.8793 55.2833 26.6356 56.4282 26.8071C57.5731 26.9786 58.6189 27.554 59.3766 28.4293C60.1343 29.3045 60.554 30.422 60.5597 31.5796V31.6796C60.5797 32.1196 60.5297 32.5596 60.3997 32.9996L69.6997 35.8496L77.1997 11.3096Z" fill="#D61920"/>
<path fill-rule="evenodd" clip-rule="evenodd" d="M49.781 25.3395C49.5497 25.3012 49.3398 25.1813 49.1893 25.0015C49.0389 24.8217 48.9579 24.5939 48.961 24.3595V12.3595C48.9597 12.2278 48.9846 12.0972 49.0344 11.9752C49.0842 11.8533 49.1578 11.7425 49.2509 11.6494C49.3441 11.5563 49.4548 11.4827 49.5768 11.4329C49.6987 11.3831 49.8293 11.3582 49.961 11.3595H58.631C59.1419 11.3582 59.648 11.4575 60.1204 11.6518C60.5929 11.846 61.0225 12.1315 61.3846 12.4918C61.7468 12.8521 62.0344 13.2802 62.2311 13.7516C62.4278 14.2231 62.5297 14.7286 62.531 15.2395V24.3595C62.5308 24.5068 62.498 24.6522 62.435 24.7853C62.372 24.9184 62.2804 25.036 62.1667 25.1296C62.0531 25.2233 61.9201 25.2906 61.7773 25.3269C61.6346 25.3632 61.4856 25.3675 61.341 25.3395C61.1116 25.2991 60.904 25.1783 60.7555 24.9987C60.6071 24.8191 60.5275 24.5925 60.531 24.3595V15.2495C60.531 14.7456 60.3308 14.2623 59.9745 13.906C59.6182 13.5497 59.1349 13.3495 58.631 13.3495H56.741V24.3495C56.7418 24.4835 56.7157 24.6163 56.6641 24.7399C56.6126 24.8636 56.5367 24.9757 56.441 25.0695C56.3272 25.1824 56.1876 25.266 56.0343 25.313C55.881 25.36 55.7186 25.3691 55.561 25.3395C55.3297 25.3012 55.1198 25.1813 54.9693 25.0015C54.8189 24.8217 54.7379 24.5939 54.741 24.3595V13.3495H50.961V24.3495C50.962 24.4966 50.9304 24.6421 50.8687 24.7756C50.8069 24.9091 50.7165 25.0274 50.6038 25.1219C50.4911 25.2165 50.3589 25.285 50.2167 25.3226C50.0745 25.3602 49.9257 25.366 49.781 25.3395ZM64.201 30.5695C63.968 30.531 63.7567 30.4096 63.606 30.2277C63.4554 30.0458 63.3755 29.8156 63.381 29.5795C63.3821 29.3171 63.4863 29.0657 63.671 28.8795C63.8557 28.6911 64.1073 28.5832 64.371 28.5795C65.221 28.5795 65.951 28.0395 66.191 27.2295L67.221 23.7995L63.851 12.5295C63.8108 12.4034 63.796 12.2707 63.8075 12.1389C63.819 12.0071 63.8565 11.8789 63.9179 11.7617C63.9793 11.6445 64.0633 11.5406 64.1652 11.4561C64.267 11.3717 64.3845 11.3082 64.511 11.2695C64.7629 11.1997 65.032 11.2292 65.2627 11.352C65.4935 11.4748 65.6683 11.6815 65.751 11.9295L68.251 20.3295L70.791 11.9295C70.911 11.4695 71.421 11.1595 71.941 11.2595L72.011 11.2695C72.551 11.4395 72.851 12.0095 72.691 12.5395L69.221 24.0995L68.121 27.7995C67.8742 28.5958 67.3847 29.295 66.721 29.7995C66.046 30.3058 65.2249 30.5795 64.381 30.5795C64.3208 30.5818 64.2606 30.5785 64.201 30.5695Z" fill="#FEFEFE"/>
<path fill-rule="evenodd" clip-rule="evenodd" d="M3.0801 23.1494H5.0401C5.56258 23.1494 6.06365 22.9418 6.4331 22.5724C6.80255 22.2029 7.0101 21.7019 7.0101 21.1794V15.4094C7.01142 15.1507 6.96176 14.8942 6.86398 14.6547C6.76619 14.4152 6.62218 14.1973 6.44018 14.0134C6.25817 13.8296 6.04174 13.6834 5.80323 13.5832C5.56472 13.4829 5.3088 13.4307 5.0501 13.4294H3.0801V23.1294V23.1494ZM1.8501 25.2094C1.60999 25.1688 1.39231 25.0437 1.23641 24.8566C1.08052 24.6695 0.996698 24.4329 1.0001 24.1894V6.26938C0.998332 6.13228 1.02396 5.9962 1.07547 5.86913C1.12699 5.74206 1.20336 5.62655 1.3001 5.52938C1.41715 5.40785 1.56226 5.31693 1.72268 5.26462C1.88309 5.2123 2.05391 5.20021 2.2201 5.22938C2.7201 5.32938 3.0801 5.74938 3.0801 6.25938V11.3594H5.0401C5.57148 11.3581 6.0979 11.4616 6.58921 11.664C7.08052 11.8665 7.52707 12.1638 7.90328 12.5391C8.27949 12.9144 8.57797 13.3602 8.78162 13.851C8.98527 14.3418 9.0901 14.868 9.0901 15.3994V21.1694C9.08746 22.24 8.66097 23.2661 7.90389 24.0232C7.14682 24.7803 6.12076 25.2067 5.0501 25.2094H2.0401C1.97327 25.2133 1.9062 25.21 1.8401 25.1994L1.8501 25.2094Z" fill="#333545"/>
<path fill-rule="evenodd" clip-rule="evenodd" d="M16.14 13.3494C16.0277 13.3298 15.914 13.3198 15.8 13.3194C15.5406 13.3168 15.2832 13.3659 15.043 13.4639C14.8028 13.562 14.5845 13.707 14.4011 13.8905C14.2176 14.0739 14.0726 14.2922 13.9745 14.5324C13.8765 14.7726 13.8273 15.03 13.83 15.2894V21.2994C13.8287 21.5585 13.8787 21.8153 13.9773 22.0549C14.0758 22.2945 14.2209 22.5122 14.4041 22.6954C14.5873 22.8786 14.805 23.0236 15.0446 23.1222C15.2842 23.2207 15.5409 23.2708 15.8 23.2694C16.3225 23.2694 16.8236 23.0619 17.193 22.6924C17.5625 22.323 17.77 21.8219 17.77 21.2994V15.2994C17.77 14.3294 17.08 13.5194 16.14 13.3494ZM15.09 25.2994C14.1524 25.1345 13.3032 24.6437 12.6921 23.9137C12.0811 23.1838 11.7474 22.2614 11.75 21.3094V15.2994C11.7483 14.7675 11.8526 14.2406 12.0569 13.7496C12.2613 13.2585 12.5615 12.8131 12.94 12.4394C13.3155 12.064 13.7615 11.7665 14.2523 11.564C14.7431 11.3615 15.2691 11.258 15.8 11.2594C16.8715 11.2594 17.8991 11.6851 18.6567 12.4427C19.4144 13.2004 19.84 14.228 19.84 15.2994V21.3094C19.84 22.3894 19.42 23.4094 18.65 24.1794C18.2761 24.5541 17.8318 24.8512 17.3427 25.0537C16.8536 25.2562 16.3294 25.3601 15.8 25.3594C15.562 25.3604 15.3245 25.3403 15.09 25.2994ZM26.89 13.3594C26.7778 13.3398 26.664 13.3297 26.55 13.3294C26.2906 13.3268 26.0332 13.3759 25.793 13.4739C25.5528 13.572 25.3345 13.717 25.1511 13.9005C24.9676 14.0839 24.8226 14.3022 24.7245 14.5424C24.6265 14.7826 24.5773 15.04 24.58 15.2994V21.3094C24.5787 21.5685 24.6287 21.8253 24.7273 22.0649C24.8258 22.3045 24.9709 22.5222 25.1541 22.7054C25.3373 22.8886 25.555 23.0336 25.7946 23.1322C26.0342 23.2307 26.2909 23.2808 26.55 23.2794C26.8091 23.2808 27.0659 23.2307 27.3055 23.1322C27.5451 23.0336 27.7628 22.8886 27.946 22.7054C28.1292 22.5222 28.2742 22.3045 28.3728 22.0649C28.4713 21.8253 28.5213 21.5685 28.52 21.3094V15.2994C28.52 14.3394 27.83 13.5294 26.89 13.3594ZM25.84 25.2994C24.9043 25.1324 24.0574 24.6407 23.4483 23.9109C22.8392 23.1812 22.507 22.26 22.51 21.3094V15.2994C22.5116 14.7101 22.6418 14.1282 22.8915 13.5943C23.1412 13.0605 23.5043 12.5876 23.9557 12.2086C24.407 11.8296 24.9357 11.5537 25.5046 11.4001C26.0736 11.2466 26.6693 11.219 27.25 11.3194C28.1878 11.482 29.038 11.9704 29.6509 12.6985C30.2637 13.4266 30.5999 14.3477 30.6 15.2994V21.3094C30.6012 21.8436 30.4957 22.3727 30.2897 22.8655C30.0836 23.3584 29.7811 23.8051 29.4 24.1794C29.0261 24.5541 28.5818 24.8512 28.0927 25.0537C27.6036 25.2562 27.0794 25.3601 26.55 25.3594C26.31 25.3594 26.07 25.3394 25.84 25.2994ZM34.11 25.3394C33.8699 25.2989 33.6522 25.1737 33.4963 24.9867C33.3404 24.7996 33.2566 24.5629 33.26 24.3194V6.26943C33.26 5.98943 33.36 5.71943 33.56 5.52943C33.678 5.41298 33.8223 5.32672 33.9807 5.27797C34.1392 5.22922 34.307 5.21943 34.47 5.24943C34.97 5.32943 35.34 5.75943 35.34 6.26943V16.9494L40.12 11.5894C40.36 11.3294 40.72 11.2094 41.08 11.2694C41.2615 11.2998 41.4316 11.3782 41.5725 11.4966C41.7134 11.615 41.8201 11.769 41.8813 11.9425C41.9426 12.116 41.9562 12.3028 41.9208 12.4834C41.8854 12.664 41.8023 12.8318 41.68 12.9694L38.07 16.9994L41.8 23.8294C41.8672 23.9446 41.9106 24.0721 41.9278 24.2043C41.945 24.3366 41.9355 24.4709 41.9 24.5994C41.8614 24.7319 41.7962 24.8551 41.7086 24.9617C41.6209 25.0683 41.5125 25.156 41.39 25.2194C41.1783 25.3411 40.9302 25.3837 40.69 25.3394C40.5406 25.3142 40.3986 25.2563 40.2742 25.1698C40.1497 25.0834 40.0459 24.9706 39.97 24.8394L36.61 18.6594L35.33 20.0694V24.3194C35.33 24.5953 35.2204 24.8598 35.0254 25.0548C34.8304 25.2499 34.5658 25.3594 34.29 25.3594C34.22 25.3594 34.16 25.3594 34.09 25.3394H34.11ZM79.92 25.3294C79.3577 25.2352 78.8234 25.0167 78.3563 24.6897C77.8892 24.3627 77.501 23.9356 77.22 23.4394C77.0826 23.1963 77.0467 22.9089 77.12 22.6394C77.2 22.3794 77.37 22.1594 77.6 22.0194C77.8136 21.9028 78.061 21.8639 78.3 21.9094C78.6 21.9594 78.87 22.1394 79.02 22.4094C79.29 22.8694 79.72 23.1694 80.25 23.2594C80.5233 23.3069 80.8037 23.292 81.0704 23.2158C81.3371 23.1396 81.5831 23.0041 81.79 22.8194C82.19 22.4494 82.39 21.9194 82.34 21.3994C82.3289 21.1329 82.2552 20.8727 82.1249 20.6399C81.9947 20.4071 81.8114 20.2083 81.59 20.0594L78.79 18.0694C78.3338 17.7491 77.9539 17.3321 77.6774 16.8481C77.4008 16.3641 77.2344 15.8251 77.19 15.2694C77.1538 14.7088 77.2458 14.1473 77.4589 13.6275C77.672 13.1077 78.0007 12.6433 78.42 12.2694C78.8291 11.8891 79.3178 11.6047 79.8506 11.437C80.3834 11.2692 80.9468 11.2222 81.5 11.2994C82.68 11.4994 83.64 12.1794 84.19 13.1394C84.3225 13.3793 84.357 13.6612 84.2861 13.926C84.2153 14.1908 84.0446 14.4178 83.81 14.5594C83.5983 14.6812 83.3502 14.7237 83.11 14.6794C82.9606 14.6542 82.8186 14.5963 82.6942 14.5098C82.5697 14.4234 82.4659 14.3106 82.39 14.1794C82.2646 13.9673 82.0937 13.7855 81.8897 13.6472C81.6857 13.5089 81.4536 13.4174 81.21 13.3794C80.9609 13.3343 80.7046 13.3479 80.4616 13.4191C80.2186 13.4902 79.9955 13.617 79.81 13.7894C79.6289 13.9603 79.4876 14.1689 79.396 14.4005C79.3044 14.632 79.2648 14.8809 79.28 15.1294C79.3 15.6194 79.58 16.0994 80 16.3794L82.8 18.3294C83.2753 18.6622 83.6684 19.0992 83.9491 19.6069C84.2299 20.1147 84.3909 20.6799 84.42 21.2594C84.4663 21.8362 84.3775 22.4158 84.1605 22.9523C83.9435 23.4887 83.6043 23.9671 83.17 24.3494C82.7476 24.7419 82.243 25.0354 81.6929 25.2083C81.1428 25.3813 80.5611 25.4295 79.99 25.3494L79.91 25.3294H79.92ZM87.95 25.3594C87.7098 25.3172 87.4921 25.1919 87.3349 25.0055C87.1777 24.8191 87.091 24.5833 87.09 24.3394V6.28943C87.0887 6.15248 87.1147 6.01664 87.1665 5.88986C87.2183 5.76308 87.2948 5.6479 87.3917 5.55106C87.4885 5.45422 87.6037 5.37766 87.7305 5.32587C87.8572 5.27408 87.9931 5.24809 88.13 5.24943L88.33 5.25943C88.83 5.35943 89.17 5.76943 89.17 6.28943V11.3894H91.14C91.6709 11.3881 92.1969 11.4917 92.6876 11.6943C93.1784 11.8968 93.6243 12.1944 93.9997 12.5698C94.3751 12.9452 94.6726 13.3911 94.8752 13.8818C95.0777 14.3726 95.1813 14.8985 95.18 15.4294V24.3294C95.1809 24.4804 95.1485 24.6298 95.0853 24.7669C95.022 24.904 94.9294 25.0255 94.8139 25.1228C94.6985 25.2201 94.563 25.2909 94.4172 25.33C94.2714 25.3692 94.1187 25.3758 93.97 25.3494C93.47 25.2594 93.11 24.8294 93.11 24.3194V15.4194C93.11 15.1612 93.059 14.9055 92.9599 14.667C92.8608 14.4286 92.7155 14.2121 92.5324 14.0299C92.3494 13.8478 92.1321 13.7037 91.8932 13.6057C91.6542 13.5078 91.3983 13.4581 91.14 13.4594H89.17V24.3294C89.1712 24.4814 89.1386 24.6318 89.0748 24.7698C89.0109 24.9077 88.9173 25.0298 88.8007 25.1273C88.6841 25.2248 88.5473 25.2953 88.4003 25.3337C88.2532 25.3721 88.0994 25.3775 87.95 25.3494V25.3594ZM102.23 13.3694C101.947 13.318 101.655 13.3296 101.377 13.4035C101.099 13.4774 100.84 13.6118 100.619 13.797C100.399 13.9822 100.222 14.2138 100.101 14.4752C99.9801 14.7366 99.9183 15.0214 99.92 15.3094V21.3194C99.9187 21.5777 99.9684 21.8336 100.066 22.0726C100.164 22.3115 100.308 22.5288 100.491 22.7118C100.673 22.8949 100.889 23.0402 101.128 23.1393C101.366 23.2384 101.622 23.2894 101.88 23.2894C102.4 23.2894 102.9 23.0894 103.27 22.7194C103.455 22.5366 103.602 22.3185 103.702 22.0781C103.801 21.8376 103.852 21.5797 103.85 21.3194V15.2994C103.85 14.3394 103.17 13.5194 102.22 13.3594L102.23 13.3694ZM101.17 25.2894C100.235 25.1245 99.3884 24.6349 98.7792 23.9067C98.17 23.1786 97.8374 22.2588 97.84 21.3094V15.2994C97.8401 14.7092 97.9692 14.1262 98.2183 13.5911C98.4674 13.0561 98.8304 12.5819 99.2819 12.2018C99.7334 11.8217 100.263 11.5449 100.832 11.3908C101.402 11.2366 101.998 11.2089 102.58 11.3094C103.519 11.4723 104.371 11.9621 104.984 12.6923C105.597 13.4225 105.932 14.346 105.93 15.2994V21.3094C105.93 21.842 105.825 22.3693 105.619 22.8605C105.412 23.3516 105.11 23.7966 104.73 24.1694C104.271 24.63 103.708 24.9725 103.088 25.1676C102.468 25.3626 101.81 25.4045 101.17 25.2894Z" fill="#333545"/>
<path fill-rule="evenodd" clip-rule="evenodd" d="M121.901 12.5393C121.935 12.4123 121.943 12.2797 121.926 12.1493C121.909 12.0189 121.866 11.8932 121.801 11.7793C121.725 11.6579 121.626 11.5529 121.509 11.4705C121.392 11.388 121.26 11.3298 121.121 11.2993C120.863 11.2506 120.596 11.3021 120.375 11.4433C120.154 11.5845 119.995 11.8049 119.931 12.0593C119.931 12.1093 118.811 16.6193 117.931 20.0493L117.911 20.1193L117.891 20.0493L115.891 12.0693C115.852 11.8745 115.755 11.6962 115.612 11.5585C115.469 11.4208 115.287 11.3303 115.091 11.2993C115.031 11.2876 114.971 11.2809 114.911 11.2793C114.451 11.2793 114.051 11.5993 113.921 12.0593C113.911 12.1093 112.791 16.6193 111.921 20.0493L111.901 20.1193L111.881 20.0493C111.031 16.6193 109.881 12.1093 109.881 12.0593C109.833 11.8679 109.732 11.6943 109.588 11.5594C109.444 11.4245 109.265 11.3342 109.071 11.2993C108.904 11.2699 108.733 11.2823 108.572 11.3354C108.412 11.3885 108.267 11.4807 108.151 11.6037C108.035 11.7267 107.951 11.8766 107.908 12.0399C107.864 12.2032 107.862 12.3748 107.901 12.5393L110.911 24.5693C110.968 24.7898 111.095 24.9854 111.274 25.1263C111.453 25.2672 111.673 25.3456 111.901 25.3493C112.391 25.3493 112.781 25.0293 112.881 24.5693L114.881 16.5793L114.911 16.5093L114.931 16.5793C115.811 20.0493 116.931 24.5793 116.931 24.5793C116.99 24.7955 117.118 24.9869 117.294 25.1254C117.47 25.264 117.686 25.3424 117.911 25.3493C118.141 25.3565 118.367 25.2822 118.548 25.1396C118.729 24.9969 118.854 24.795 118.901 24.5693L121.901 12.5393Z" fill="#333545"/>
</svg>
